<svg xmlns="http://www.w3.org/2000/svg" width="900" height="300" viewBox="0 0 900 300"><style>.p{animation:fl 6s ease-in-out infinite}@keyframes fl{0%,100%{transform:translateY(0)}50%{transform:translateY(-14px)}}.s{animation:tw 3s ease-in-out infinite}@keyframes tw{0%,100%{opacity:.15}50%{opacity:1}}.st{opacity:0;animation:sm 3.4s ease-in-out infinite}@keyframes sm{0%{transform:translateY(12px);opacity:0}40%{opacity:.55}100%{transform:translateY(-18px);opacity:0}}</style><defs><linearGradient id="g" x1="0" y1="0" x2="1" y2="1"><stop offset="0" stop-color="#FBE3E6"/><stop offset="0.55" stop-color="#EBE2F5"/><stop offset="1" stop-color="#DCEBDD"/></linearGradient></defs><rect width="900" height="300" rx="30" fill="url(#g)"/><rect x="8" y="8" width="884" height="284" rx="24" fill="none" stroke="#B07A94" stroke-opacity="0.35" stroke-dasharray="4 7"/><g transform="translate(600 60) rotate(25)"><ellipse class="p" rx="14" ry="8.4" fill="#F4C6CC" opacity="0.9" style="animation-delay:0.0s"/></g><g transform="translate(690 36) rotate(-30)"><ellipse class="p" rx="10" ry="6.0" fill="#E6DDF2" opacity="0.9" style="animation-delay:1.2s"/></g><g transform="translate(790 84) rotate(50)"><ellipse class="p" rx="16" ry="9.6" fill="#CFE3D0" opacity="0.9" style="animation-delay:2.1s"/></g><g transform="translate(850 40) rotate(10)"><ellipse class="p" rx="9" ry="5.4" fill="#FBEBCB" opacity="0.9" style="animation-delay:0.6s"/></g><g transform="translate(560 220) rotate(-20)"><ellipse class="p" rx="11" ry="6.6" fill="#F4C6CC" opacity="0.9" style="animation-delay:1.8s"/></g><g transform="translate(846 236) rotate(35)"><ellipse class="p" rx="13" ry="7.8" fill="#E6DDF2" opacity="0.9" style="animation-delay:2.8s"/></g><g transform="translate(760 268) rotate(70)"><ellipse class="p" rx="8" ry="4.8" fill="#CFE3D0" opacity="0.9" style="animation-delay:0.3s"/></g><g transform="translate(520 120) rotate(15)"><ellipse class="p" rx="9" ry="5.4" fill="#FBEBCB" opacity="0.9" style="animation-delay:2.4s"/></g><path class="s" transform="translate(470 50)" fill="#B07A94" style="animation-delay:0.0s" d="M0 -9 L2.5 -2.5 L9 0 L2.5 2.5 L0 9 L-2.5 2.5 L-9 0 L-2.5 -2.5Z"/><path class="s" transform="translate(640 150)" fill="#B07A94" style="animation-delay:0.5s" d="M0 -9 L2.5 -2.5 L9 0 L2.5 2.5 L0 9 L-2.5 2.5 L-9 0 L-2.5 -2.5Z"/><path class="s" transform="translate(880 150)" fill="#B07A94" style="animation-delay:1.0s" d="M0 -9 L2.5 -2.5 L9 0 L2.5 2.5 L0 9 L-2.5 2.5 L-9 0 L-2.5 -2.5Z"/><path class="s" transform="translate(520 260)" fill="#B07A94" style="animation-delay:1.5s" d="M0 -9 L2.5 -2.5 L9 0 L2.5 2.5 L0 9 L-2.5 2.5 L-9 0 L-2.5 -2.5Z"/><path class="s" transform="translate(60 40)" fill="#B07A94" style="animation-delay:2.0s" d="M0 -9 L2.5 -2.5 L9 0 L2.5 2.5 L0 9 L-2.5 2.5 L-9 0 L-2.5 -2.5Z"/><path class="s" transform="translate(480 262)" fill="#B07A94" style="animation-delay:2.5s" d="M0 -9 L2.5 -2.5 L9 0 L2.5 2.5 L0 9 L-2.5 2.5 L-9 0 L-2.5 -2.5Z"/><ellipse cx="700" cy="236" rx="82" ry="11" fill="#E6DDF2" stroke="#B07A94" stroke-opacity="0.5"/><path d="M770 168 q40 0 40 30 q0 30 -36 30" fill="none" stroke="#B07A94" stroke-width="7" stroke-linecap="round"/><path d="M630 152 H770 V182 Q770 234 700 234 Q630 234 630 182 Z" fill="#FFF8F3" stroke="#B07A94" stroke-width="3"/><ellipse cx="700" cy="152" rx="70" ry="10" fill="#D9A98C" stroke="#B07A94" stroke-width="2"/><path d="M700 214 c-16 -11 -22 -24 -11 -30 c6 -3 11 0 11 5 c0 -5 5 -8 11 -5 c11 6 5 19 -11 30z" fill="#F4C6CC"/><path class="st" d="M675 140 c-9 -13 9 -22 0 -36" fill="none" stroke="#B07A94" stroke-width="4" stroke-linecap="round" style="animation-delay:0.0s"/><path class="st" d="M700 140 c-9 -13 9 -22 0 -36" fill="none" stroke="#B07A94" stroke-width="4" stroke-linecap="round" style="animation-delay:0.9s"/><path class="st" d="M725 140 c-9 -13 9 -22 0 -36" fill="none" stroke="#B07A94" stroke-width="4" stroke-linecap="round" style="animation-delay:1.8s"/><text x="56" y="132" font-family="Georgia, 'Times New Roman', serif" font-size="68" font-weight="bold" fill="#6B4A5A">Poojashree</text><text x="58" y="178" font-family="Georgia, 'Times New Roman', serif" font-size="23" font-style="italic" fill="#8E6B86">dear data, let me tell your story</text><text x="58" y="216" font-family="'Segoe UI', Helvetica, Arial, sans-serif" font-size="15" letter-spacing="1.5" fill="#6B4A5A" opacity="0.8">BCA DATA SCIENCE  ·  ALLIANCE UNIVERSITY</text><rect x="58" y="238" width="190" height="32" rx="16" fill="#B07A94" opacity="0.18"/><text x="153" y="259" text-anchor="middle" font-family="'Segoe UI', Helvetica, Arial, sans-serif" font-size="14" font-weight="600" fill="#6B4A5A">aspiring data analyst</text></svg>